<?xml version="1.0" encoding="UTF-8"?>
<svg version="1.1" xmlns="http://www.w3.org/2000/svg" width="48" height="48">
<path d="M0 0 C0.80066895 0.00354492 1.60133789 0.00708984 2.42626953 0.01074219 C8.47481257 0.18154205 12.67131785 1.19518745 17.125 5.5 C17.888125 6.139375 18.65125 6.77875 19.4375 7.4375 C23.84217382 12.82099022 24.67799452 17.6572478 24.625 24.375 C24.62145508 25.17566895 24.61791016 25.97633789 24.61425781 26.80126953 C24.44345795 32.84981257 23.42981255 37.04631785 19.125 41.5 C18.485625 42.263125 17.84625 43.02625 17.1875 43.8125 C11.80400978 48.21717382 6.9677522 49.05299452 0.25 49 C-0.55066895 48.99645508 -1.35133789 48.99291016 -2.17626953 48.98925781 C-8.22481257 48.81845795 -12.42131785 47.80481255 -16.875 43.5 C-17.638125 42.860625 -18.40125 42.22125 -19.1875 41.5625 C-23.59217382 36.17900978 -24.42799452 31.3427522 -24.375 24.625 C-24.37145508 23.82433105 -24.36791016 23.02366211 -24.36425781 22.19873047 C-24.19345795 16.15018743 -23.17981255 11.95368215 -18.875 7.5 C-18.235625 6.736875 -17.59625 5.97375 -16.9375 5.1875 C-11.55400978 0.78282618 -6.7177522 -0.05299452 0 0 Z " fill="#060606" transform="translate(23.875,-0.5)"/>
<path d="M0 0 C4.34863397 3.84143954 6.24582387 9.286351 8.6875 14.4375 C9.19861328 15.48744141 9.70972656 16.53738281 10.23632812 17.61914062 C10.96045898 19.13604492 10.96045898 19.13604492 11.69921875 20.68359375 C12.14096436 21.60712646 12.58270996 22.53065918 13.0378418 23.48217773 C14 26 14 26 14 30 C11.64916992 29.76635742 11.64916992 29.76635742 9 29 C7.63793945 27.14575195 7.63793945 27.14575195 6.61328125 24.73828125 C6.0419043 23.43020508 6.0419043 23.43020508 5.45898438 22.09570312 C5.08064453 21.17724609 4.70230469 20.25878906 4.3125 19.3125 C3.92255859 18.41337891 3.53261719 17.51425781 3.13085938 16.58789062 C2.05092132 14.07172725 1.01605485 11.54252222 0 9 C-0.46019531 7.85917969 -0.92039062 6.71835938 -1.39453125 5.54296875 C-1.59433594 4.70378906 -1.79414063 3.86460938 -2 3 C-1.34 2.01 -0.68 1.02 0 0 Z " fill="#DBDBDB" transform="translate(21,5)"/>
<path d="M0 0 C3.37462715 0.54723683 5.08235 1.0549 8 3 C8.2982655 7.54854894 8.10962199 11.56151204 7 16 C5.68 15.34 4.36 14.68 3 14 C3.03480469 13.32453125 3.06960937 12.6490625 3.10546875 11.953125 C3.13253906 11.06109375 3.15960937 10.1690625 3.1875 9.25 C3.22230469 8.36828125 3.25710937 7.4865625 3.29296875 6.578125 C2.94923684 3.55328417 1.99772541 2.24416398 0 0 Z " fill="#DFDFDF" transform="translate(27,4)"/>
<path d="M0 0 C1.98 0 3.96 0 6 0 C6 0.99 6 1.98 6 3 C4.02 3.33 2.04 3.66 0 4 C0 2.68 0 1.36 0 0 Z " fill="#464646" transform="translate(22,40)"/>
<path d="M0 0 C0.66 0 1.32 0 2 0 C2.66 1.65 3.32 3.3 4 5 C2.02 5 0.04 5 -2 5 C-1.34 3.35 -0.68 1.7 0 0 Z " fill="#C8C8C8" transform="translate(12,20)"/>
</svg>
